<svg width="24" height="24" viewBox="0 0 24 24" fill="none" xmlns="http://www.w3.org/2000/svg">
<g id="vuesax/bulk/mouse-square">
<g id="mouse-square">
<path id="Vector" opacity="0.4" d="M15.48 2H7.53001C4.07001 2 2.01001 4.06 2.01001 7.52V15.47C2.01001 18.93 4.08001 20.99 7.53001 20.99H15.48C18.94 20.99 21 18.93 21 15.47V7.52C21 4.06 18.93 2 15.48 2Z" fill="#000"/>
<path id="translate" style="transform-origin: center; transform-box: fill-box; animation: translateX 2s linear infinite;" d="M21.96 18.84L20.33 19.39C20.106 19.4636 19.9023 19.5888 19.7356 19.7556C19.5688 19.9223 19.4436 20.1259 19.37 20.35L18.82 21.98C18.7195 22.2859 18.5242 22.5518 18.2624 22.7393C18.0006 22.9268 17.686 23.026 17.364 23.0227C17.0421 23.0193 16.7295 22.9136 16.4717 22.7207C16.2139 22.5278 16.0241 22.2579 15.93 21.95L14.08 16C13.9959 15.7353 13.986 15.4525 14.0514 15.1826C14.1167 14.9126 14.2549 14.6657 14.4508 14.4688C14.6467 14.2719 14.8928 14.1324 15.1624 14.0657C15.4321 13.9989 15.7148 14.0073 15.98 14.09L21.94 15.94C22.2462 16.0381 22.5136 16.2304 22.7041 16.4895C22.8945 16.7486 22.9983 17.0612 23.0005 17.3827C23.0027 17.7043 22.9033 18.0183 22.7164 18.28C22.5296 18.5417 22.2648 18.7377 21.96 18.84V18.84Z" fill="#000"/>
</g>
</g>
<style>
  @keyframes translateX {
    0%,
    100% {
      transform: translateX(0px) translateY(0px);
    }

    50% {
      transform: translateX(-3px) translateY(-3px);
    }
  }
</style>
</svg>
